<svg width="30" height="30" viewBox="0 0 30 30" fill="none" xmlns="http://www.w3.org/2000/svg">
<path d="M18.0487 9.50451C15.5878 9.89747 13.4174 11.161 11.8632 12.9695C9.62544 12.4066 7.96875 10.3812 7.96875 7.96875C7.96875 5.12104 10.2773 2.8125 13.125 2.8125C15.9727 2.8125 18.2812 5.12104 18.2812 7.96875C18.2812 8.50359 18.1998 9.01942 18.0487 9.50451ZM10.4995 15C9.78053 16.4064 9.375 17.9996 9.375 19.6875C9.375 22.1428 10.2331 24.3979 11.6658 26.1688C6.66502 25.5994 3.75 22.1299 3.75 18.75V17.8125C3.75 16.2592 5.00919 15 6.5625 15H10.4995ZM18.5156 15.9375C18.5156 15.2903 19.0402 14.7656 19.6875 14.7656C20.3347 14.7656 20.8594 15.2903 20.8594 15.9375C20.8594 16.5847 20.3347 17.1094 19.6875 17.1094C19.0402 17.1094 18.5156 16.5847 18.5156 15.9375ZM20.625 23.4375C20.625 23.9552 20.2052 24.375 19.6875 24.375C19.1698 24.375 18.75 23.9552 18.75 23.4375V19.6875C18.75 19.1698 19.1698 18.75 19.6875 18.75C20.2052 18.75 20.625 19.1698 20.625 19.6875V23.4375ZM11.25 19.6875C11.25 15.0276 15.0276 11.25 19.6875 11.25C24.3474 11.25 28.125 15.0276 28.125 19.6875C28.125 24.3474 24.3474 28.125 19.6875 28.125C15.0276 28.125 11.25 24.3474 11.25 19.6875ZM13.125 19.6875C13.125 23.3119 16.0631 26.25 19.6875 26.25C23.3119 26.25 26.25 23.3119 26.25 19.6875C26.25 16.0631 23.3119 13.125 19.6875 13.125C16.0631 13.125 13.125 16.0631 13.125 19.6875Z" fill="#C4C4C4"/>
</svg>
