<svg width="40" height="40" viewBox="0 0 40 40" fill="none" xmlns="http://www.w3.org/2000/svg">
<path d="M30.2617 28.1365L28.2834 30.093C26.8254 31.524 24.9334 33.364 22.607 35.6131C21.1532 37.0188 18.8469 37.0186 17.3934 35.6128L11.5749 29.953C10.8436 29.235 10.2315 28.6295 9.73843 28.1365C4.07108 22.4691 4.07108 13.2805 9.73843 7.61312C15.4058 1.94577 24.5944 1.94577 30.2617 7.61312C35.929 13.2805 35.929 22.4691 30.2617 28.1365ZM24.167 18.3326C24.167 16.0312 22.3014 14.1656 20 14.1656C17.6987 14.1656 15.8331 16.0312 15.8331 18.3326C15.8331 20.634 17.6987 22.4996 20 22.4996C22.3014 22.4996 24.167 20.634 24.167 18.3326Z" fill="#FA949D"/>
</svg>
