<svg width="52" height="52" viewBox="0 0 52 52" fill="none" xmlns="http://www.w3.org/2000/svg">
<path d="M34.1265 30.3273C36.8177 30.3273 38.9991 32.5089 38.9991 35.1999V37.19C38.9991 37.8086 38.9029 38.4196 38.717 39.0018H34.3098C34.9667 37.5978 34.7158 35.874 33.5566 34.7141C32.0764 33.233 29.6757 33.2321 28.1943 34.7124L22.7777 40.1256C22.0659 40.8369 21.6661 41.802 21.6663 42.8084C21.6665 43.8146 22.0668 44.7796 22.779 45.4907L24.8035 47.5122C23.7977 47.613 22.7495 47.6632 21.6592 47.6632C14.2471 47.6632 8.78064 45.3401 5.4393 40.6508C4.72005 39.6414 4.3335 38.4328 4.3335 37.1932V35.1999C4.3335 32.5089 6.51503 30.3273 9.20607 30.3273H34.1265ZM21.6592 4.33759C27.6423 4.33759 32.4926 9.18784 32.4926 15.1709C32.4926 21.154 27.6423 26.0044 21.6592 26.0044C15.6761 26.0044 10.8258 21.154 10.8258 15.1709C10.8258 9.18784 15.6761 4.33759 21.6592 4.33759ZM32.0239 38.5309C32.6583 37.8963 32.6581 36.8674 32.0235 36.233C31.3887 35.5986 30.3597 35.5988 29.7253 36.2334L24.3086 41.6525C24.004 41.9573 23.8328 42.3707 23.8331 42.8017C23.8331 43.2326 24.0044 43.6458 24.3091 43.9506L29.7257 49.3649C30.3606 49.9993 31.3895 49.9991 32.0239 49.3643C32.6583 48.7297 32.6581 47.7007 32.0235 47.0663L29.3799 44.4238H44.2866L41.6426 47.0661C41.0078 47.7005 41.0076 48.7295 41.642 49.3643C42.2764 49.9991 43.3051 49.9993 43.9399 49.3649L49.3566 43.9517C49.6615 43.6471 49.8328 43.2339 49.8331 42.803C49.8331 42.372 49.6621 41.9586 49.3575 41.6538L43.9408 36.2336C43.3064 35.5988 42.2775 35.5984 41.6426 36.2328C41.0078 36.8672 41.0076 37.8961 41.642 38.5309L44.2831 41.1738H29.3821L32.0239 38.5309Z" fill="#FA949D"/>
</svg>
