<svg width="52" height="52" viewBox="0 0 52 52" fill="none" xmlns="http://www.w3.org/2000/svg">
<path d="M34.125 4.33334C36.8173 4.33334 39 6.51596 39 9.20834V42.7917C39 45.484 36.8173 47.6667 34.125 47.6667H17.875C15.1826 47.6667 13 45.484 13 42.7917V9.20834C13 6.51596 15.1826 4.33334 17.875 4.33334H34.125ZM28.7083 39H23.2917C22.3942 39 21.6667 39.7276 21.6667 40.625C21.6667 41.5224 22.3942 42.25 23.2917 42.25H28.7083C29.6058 42.25 30.3333 41.5224 30.3333 40.625C30.3333 39.7276 29.6058 39 28.7083 39Z" fill="#FA949D"/>
</svg>
