<svg width="30" height="30" viewBox="0 0 30 30" fill="none" xmlns="http://www.w3.org/2000/svg">
<path d="M19.6875 2.5C21.2408 2.5 22.5 3.7592 22.5 5.3125V24.6875C22.5 26.2407 21.2408 27.5 19.6875 27.5H10.3125C8.7592 27.5 7.5 26.2407 7.5 24.6875V5.3125C7.5 3.7592 8.7592 2.5 10.3125 2.5H19.6875ZM16.5625 22.5H13.4375C12.9198 22.5 12.5 22.9198 12.5 23.4375C12.5 23.9552 12.9198 24.375 13.4375 24.375H16.5625C17.0802 24.375 17.5 23.9552 17.5 23.4375C17.5 22.9198 17.0802 22.5 16.5625 22.5Z" fill="#C4C4C4"/>
</svg>
