<svg width="40" height="30" viewBox="0 0 40 30" fill="none" xmlns="http://www.w3.org/2000/svg">
<path d="M40 3.55855C38.529 4.1599 36.9488 4.56621 35.2876 4.74987C37.0017 3.80363 38.2841 2.31435 38.8954 0.559934C37.285 1.44244 35.5225 2.06362 33.6845 2.39648C32.4485 1.17894 30.8113 0.371933 29.0273 0.100754C27.2432 -0.170425 25.412 0.109396 23.8179 0.896774C22.2239 1.68415 20.9562 2.93503 20.2117 4.45521C19.4672 5.97539 19.2875 7.67981 19.7005 9.30386C16.4374 9.1527 13.2452 8.37022 10.3311 7.00721C7.41693 5.64419 4.84602 3.73109 2.78517 1.39207C2.08051 2.5135 1.67533 3.81371 1.67533 5.19844C1.67454 6.44501 2.00728 7.67249 2.64402 8.77196C3.28076 9.87144 4.20182 10.8089 5.32546 11.5012C4.02233 11.463 2.74795 11.1381 1.60839 10.5537V10.6512C1.60825 12.3996 2.26378 14.0941 3.46372 15.4474C4.66367 16.8006 6.33413 17.7291 8.19167 18.0754C6.9828 18.3773 5.71538 18.4217 4.48516 18.2054C5.00924 19.7098 6.03012 21.0253 7.40486 21.9678C8.7796 22.9103 10.4394 23.4326 12.1519 23.4615C9.24484 25.5669 5.65469 26.709 1.95895 26.7039C1.30429 26.7041 0.650183 26.6688 0 26.5983C3.75139 28.8236 8.11828 30.0046 12.5782 30C27.6755 30 35.9288 18.4639 35.9288 8.45872C35.9288 8.13367 35.92 7.80537 35.9042 7.48031C37.5095 6.40922 38.8953 5.08288 39.9965 3.56342L40 3.55855Z" fill="#FA949D"/>
</svg>
